<?xml version="1.0" encoding="utf-8" standalone="no"?>
<!DOCTYPE svg PUBLIC "-//W3C//DTD SVG 1.1//EN"
  "http://www.w3.org/Graphics/SVG/1.1/DTD/svg11.dtd">
<!-- Created with matplotlib (https://matplotlib.org/) -->
<svg height="340.254914pt" version="1.1" viewBox="0 0 316.600615 340.254914" width="316.600615pt" xmlns="http://www.w3.org/2000/svg" xmlns:xlink="http://www.w3.org/1999/xlink">
 <metadata>
  <rdf:RDF xmlns:cc="http://creativecommons.org/ns#" xmlns:dc="http://purl.org/dc/elements/1.1/" xmlns:rdf="http://www.w3.org/1999/02/22-rdf-syntax-ns#">
   <cc:Work>
    <dc:type rdf:resource="http://purl.org/dc/dcmitype/StillImage"/>
    <dc:date>2023-09-19T23:36:05.640985</dc:date>
    <dc:format>image/svg+xml</dc:format>
    <dc:creator>
     <cc:Agent>
      <dc:title>Matplotlib v3.3.4, https://matplotlib.org/</dc:title>
     </cc:Agent>
    </dc:creator>
   </cc:Work>
  </rdf:RDF>
 </metadata>
 <defs>
  <style type="text/css">*{stroke-linecap:butt;stroke-linejoin:round;}</style>
 </defs>
 <g id="figure_1">
  <g id="patch_1">
   <path d="M 0 340.254914 
L 316.600615 340.254914 
L 316.600615 0 
L 0 0 
z
" style="fill:#ffffff;"/>
  </g>
  <g id="axes_1">
   <g id="patch_2">
    <path d="M 7.2 333.054914 
L 309.400615 333.054914 
L 309.400615 30.854299 
L 7.2 30.854299 
z
" style="fill:#ffffff;"/>
   </g>
   <g id="matplotlib.axis_1">
    <g id="xtick_1">
     <g id="line2d_1">
      <defs>
       <path d="M 0 0 
L 0 3.5 
" id="ma429e59c60" style="stroke:#000000;stroke-width:0.8;"/>
      </defs>
      <g>
       <use style="stroke:#000000;stroke-width:0.8;" x="33.767087" xlink:href="#ma429e59c60" y="181.954607"/>
      </g>
     </g>
     <g id="text_1">
      <!-- −6 -->
      <g transform="translate(26.395993 196.553044)scale(0.1 -0.1)">
       <defs>
        <path d="M 10.59375 35.5 
L 73.1875 35.5 
L 73.1875 27.203125 
L 10.59375 27.203125 
z
" id="DejaVuSans-8722"/>
        <path d="M 33.015625 40.375 
Q 26.375 40.375 22.484375 35.828125 
Q 18.609375 31.296875 18.609375 23.390625 
Q 18.609375 15.53125 22.484375 10.953125 
Q 26.375 6.390625 33.015625 6.390625 
Q 39.65625 6.390625 43.53125 10.953125 
Q 47.40625 15.53125 47.40625 23.390625 
Q 47.40625 31.296875 43.53125 35.828125 
Q 39.65625 40.375 33.015625 40.375 
z
M 52.59375 71.296875 
L 52.59375 62.3125 
Q 48.875 64.0625 45.09375 64.984375 
Q 41.3125 65.921875 37.59375 65.921875 
Q 27.828125 65.921875 22.671875 59.328125 
Q 17.53125 52.734375 16.796875 39.40625 
Q 19.671875 43.65625 24.015625 45.921875 
Q 28.375 48.1875 33.59375 48.1875 
Q 44.578125 48.1875 50.953125 41.515625 
Q 57.328125 34.859375 57.328125 23.390625 
Q 57.328125 12.15625 50.6875 5.359375 
Q 44.046875 -1.421875 33.015625 -1.421875 
Q 20.359375 -1.421875 13.671875 8.265625 
Q 6.984375 17.96875 6.984375 36.375 
Q 6.984375 53.65625 15.1875 63.9375 
Q 23.390625 74.21875 37.203125 74.21875 
Q 40.921875 74.21875 44.703125 73.484375 
Q 48.484375 72.75 52.59375 71.296875 
z
" id="DejaVuSans-54"/>
       </defs>
       <use xlink:href="#DejaVuSans-8722"/>
       <use x="83.789062" xlink:href="#DejaVuSans-54"/>
      </g>
     </g>
    </g>
    <g id="xtick_2">
     <g id="line2d_2">
      <g>
       <use style="stroke:#000000;stroke-width:0.8;" x="75.278161" xlink:href="#ma429e59c60" y="181.954607"/>
      </g>
     </g>
     <g id="text_2">
      <!-- −4 -->
      <g transform="translate(67.907067 196.553044)scale(0.1 -0.1)">
       <defs>
        <path d="M 37.796875 64.3125 
L 12.890625 25.390625 
L 37.796875 25.390625 
z
M 35.203125 72.90625 
L 47.609375 72.90625 
L 47.609375 25.390625 
L 58.015625 25.390625 
L 58.015625 17.1875 
L 47.609375 17.1875 
L 47.609375 0 
L 37.796875 0 
L 37.796875 17.1875 
L 4.890625 17.1875 
L 4.890625 26.703125 
z
" id="DejaVuSans-52"/>
       </defs>
       <use xlink:href="#DejaVuSans-8722"/>
       <use x="83.789062" xlink:href="#DejaVuSans-52"/>
      </g>
     </g>
    </g>
    <g id="xtick_3">
     <g id="line2d_3">
      <g>
       <use style="stroke:#000000;stroke-width:0.8;" x="116.789234" xlink:href="#ma429e59c60" y="181.954607"/>
      </g>
     </g>
     <g id="text_3">
      <!-- −2 -->
      <g transform="translate(109.41814 196.553044)scale(0.1 -0.1)">
       <defs>
        <path d="M 19.1875 8.296875 
L 53.609375 8.296875 
L 53.609375 0 
L 7.328125 0 
L 7.328125 8.296875 
Q 12.9375 14.109375 22.625 23.890625 
Q 32.328125 33.6875 34.8125 36.53125 
Q 39.546875 41.84375 41.421875 45.53125 
Q 43.3125 49.21875 43.3125 52.78125 
Q 43.3125 58.59375 39.234375 62.25 
Q 35.15625 65.921875 28.609375 65.921875 
Q 23.96875 65.921875 18.8125 64.3125 
Q 13.671875 62.703125 7.8125 59.421875 
L 7.8125 69.390625 
Q 13.765625 71.78125 18.9375 73 
Q 24.125 74.21875 28.421875 74.21875 
Q 39.75 74.21875 46.484375 68.546875 
Q 53.21875 62.890625 53.21875 53.421875 
Q 53.21875 48.921875 51.53125 44.890625 
Q 49.859375 40.875 45.40625 35.40625 
Q 44.1875 33.984375 37.640625 27.21875 
Q 31.109375 20.453125 19.1875 8.296875 
z
" id="DejaVuSans-50"/>
       </defs>
       <use xlink:href="#DejaVuSans-8722"/>
       <use x="83.789062" xlink:href="#DejaVuSans-50"/>
      </g>
     </g>
    </g>
    <g id="xtick_4">
     <g id="line2d_4">
      <g>
       <use style="stroke:#000000;stroke-width:0.8;" x="158.300308" xlink:href="#ma429e59c60" y="181.954607"/>
      </g>
     </g>
    </g>
    <g id="xtick_5">
     <g id="line2d_5">
      <g>
       <use style="stroke:#000000;stroke-width:0.8;" x="199.811381" xlink:href="#ma429e59c60" y="181.954607"/>
      </g>
     </g>
     <g id="text_4">
      <!-- 2 -->
      <g transform="translate(196.630131 196.553044)scale(0.1 -0.1)">
       <use xlink:href="#DejaVuSans-50"/>
      </g>
     </g>
    </g>
    <g id="xtick_6">
     <g id="line2d_6">
      <g>
       <use style="stroke:#000000;stroke-width:0.8;" x="241.322455" xlink:href="#ma429e59c60" y="181.954607"/>
      </g>
     </g>
     <g id="text_5">
      <!-- 4 -->
      <g transform="translate(238.141205 196.553044)scale(0.1 -0.1)">
       <use xlink:href="#DejaVuSans-52"/>
      </g>
     </g>
    </g>
    <g id="xtick_7">
     <g id="line2d_7">
      <g>
       <use style="stroke:#000000;stroke-width:0.8;" x="282.833528" xlink:href="#ma429e59c60" y="181.954607"/>
      </g>
     </g>
     <g id="text_6">
      <!-- 6 -->
      <g transform="translate(279.652278 196.553044)scale(0.1 -0.1)">
       <use xlink:href="#DejaVuSans-54"/>
      </g>
     </g>
    </g>
    <g id="xtick_8">
     <g id="line2d_8">
      <defs>
       <path d="M 0 0 
L 0 2 
" id="m704ae310a6" style="stroke:#000000;stroke-width:0.6;"/>
      </defs>
      <g>
       <use style="stroke:#000000;stroke-width:0.6;" x="13.01155" xlink:href="#m704ae310a6" y="181.954607"/>
      </g>
     </g>
    </g>
    <g id="xtick_9">
     <g id="line2d_9">
      <g>
       <use style="stroke:#000000;stroke-width:0.6;" x="23.389319" xlink:href="#m704ae310a6" y="181.954607"/>
      </g>
     </g>
    </g>
    <g id="xtick_10">
     <g id="line2d_10">
      <g>
       <use style="stroke:#000000;stroke-width:0.6;" x="44.144855" xlink:href="#m704ae310a6" y="181.954607"/>
      </g>
     </g>
    </g>
    <g id="xtick_11">
     <g id="line2d_11">
      <g>
       <use style="stroke:#000000;stroke-width:0.6;" x="54.522624" xlink:href="#m704ae310a6" y="181.954607"/>
      </g>
     </g>
    </g>
    <g id="xtick_12">
     <g id="line2d_12">
      <g>
       <use style="stroke:#000000;stroke-width:0.6;" x="64.900392" xlink:href="#m704ae310a6" y="181.954607"/>
      </g>
     </g>
    </g>
    <g id="xtick_13">
     <g id="line2d_13">
      <g>
       <use style="stroke:#000000;stroke-width:0.6;" x="85.655929" xlink:href="#m704ae310a6" y="181.954607"/>
      </g>
     </g>
    </g>
    <g id="xtick_14">
     <g id="line2d_14">
      <g>
       <use style="stroke:#000000;stroke-width:0.6;" x="96.033697" xlink:href="#m704ae310a6" y="181.954607"/>
      </g>
     </g>
    </g>
    <g id="xtick_15">
     <g id="line2d_15">
      <g>
       <use style="stroke:#000000;stroke-width:0.6;" x="106.411466" xlink:href="#m704ae310a6" y="181.954607"/>
      </g>
     </g>
    </g>
    <g id="xtick_16">
     <g id="line2d_16">
      <g>
       <use style="stroke:#000000;stroke-width:0.6;" x="127.167003" xlink:href="#m704ae310a6" y="181.954607"/>
      </g>
     </g>
    </g>
    <g id="xtick_17">
     <g id="line2d_17">
      <g>
       <use style="stroke:#000000;stroke-width:0.6;" x="137.544771" xlink:href="#m704ae310a6" y="181.954607"/>
      </g>
     </g>
    </g>
    <g id="xtick_18">
     <g id="line2d_18">
      <g>
       <use style="stroke:#000000;stroke-width:0.6;" x="147.922539" xlink:href="#m704ae310a6" y="181.954607"/>
      </g>
     </g>
    </g>
    <g id="xtick_19">
     <g id="line2d_19">
      <g>
       <use style="stroke:#000000;stroke-width:0.6;" x="168.678076" xlink:href="#m704ae310a6" y="181.954607"/>
      </g>
     </g>
    </g>
    <g id="xtick_20">
     <g id="line2d_20">
      <g>
       <use style="stroke:#000000;stroke-width:0.6;" x="179.055844" xlink:href="#m704ae310a6" y="181.954607"/>
      </g>
     </g>
    </g>
    <g id="xtick_21">
     <g id="line2d_21">
      <g>
       <use style="stroke:#000000;stroke-width:0.6;" x="189.433613" xlink:href="#m704ae310a6" y="181.954607"/>
      </g>
     </g>
    </g>
    <g id="xtick_22">
     <g id="line2d_22">
      <g>
       <use style="stroke:#000000;stroke-width:0.6;" x="210.18915" xlink:href="#m704ae310a6" y="181.954607"/>
      </g>
     </g>
    </g>
    <g id="xtick_23">
     <g id="line2d_23">
      <g>
       <use style="stroke:#000000;stroke-width:0.6;" x="220.566918" xlink:href="#m704ae310a6" y="181.954607"/>
      </g>
     </g>
    </g>
    <g id="xtick_24">
     <g id="line2d_24">
      <g>
       <use style="stroke:#000000;stroke-width:0.6;" x="230.944686" xlink:href="#m704ae310a6" y="181.954607"/>
      </g>
     </g>
    </g>
    <g id="xtick_25">
     <g id="line2d_25">
      <g>
       <use style="stroke:#000000;stroke-width:0.6;" x="251.700223" xlink:href="#m704ae310a6" y="181.954607"/>
      </g>
     </g>
    </g>
    <g id="xtick_26">
     <g id="line2d_26">
      <g>
       <use style="stroke:#000000;stroke-width:0.6;" x="262.077992" xlink:href="#m704ae310a6" y="181.954607"/>
      </g>
     </g>
    </g>
    <g id="xtick_27">
     <g id="line2d_27">
      <g>
       <use style="stroke:#000000;stroke-width:0.6;" x="272.45576" xlink:href="#m704ae310a6" y="181.954607"/>
      </g>
     </g>
    </g>
    <g id="xtick_28">
     <g id="line2d_28">
      <g>
       <use style="stroke:#000000;stroke-width:0.6;" x="293.211297" xlink:href="#m704ae310a6" y="181.954607"/>
      </g>
     </g>
    </g>
    <g id="xtick_29">
     <g id="line2d_29">
      <g>
       <use style="stroke:#000000;stroke-width:0.6;" x="303.589065" xlink:href="#m704ae310a6" y="181.954607"/>
      </g>
     </g>
    </g>
   </g>
   <g id="matplotlib.axis_2">
    <g id="ytick_1">
     <g id="line2d_30">
      <defs>
       <path d="M 0 0 
L -3.5 0 
" id="m4a946245ca" style="stroke:#000000;stroke-width:0.8;"/>
      </defs>
      <g>
       <use style="stroke:#000000;stroke-width:0.8;" x="158.300308" xlink:href="#m4a946245ca" y="306.487827"/>
      </g>
     </g>
     <g id="text_7">
      <!-- −6 -->
      <g transform="translate(136.55812 310.287046)scale(0.1 -0.1)">
       <use xlink:href="#DejaVuSans-8722"/>
       <use x="83.789062" xlink:href="#DejaVuSans-54"/>
      </g>
     </g>
    </g>
    <g id="ytick_2">
     <g id="line2d_31">
      <g>
       <use style="stroke:#000000;stroke-width:0.8;" x="158.300308" xlink:href="#m4a946245ca" y="264.976754"/>
      </g>
     </g>
     <g id="text_8">
      <!-- −4 -->
      <g transform="translate(136.55812 268.775973)scale(0.1 -0.1)">
       <use xlink:href="#DejaVuSans-8722"/>
       <use x="83.789062" xlink:href="#DejaVuSans-52"/>
      </g>
     </g>
    </g>
    <g id="ytick_3">
     <g id="line2d_32">
      <g>
       <use style="stroke:#000000;stroke-width:0.8;" x="158.300308" xlink:href="#m4a946245ca" y="223.46568"/>
      </g>
     </g>
     <g id="text_9">
      <!-- −2 -->
      <g transform="translate(136.55812 227.264899)scale(0.1 -0.1)">
       <use xlink:href="#DejaVuSans-8722"/>
       <use x="83.789062" xlink:href="#DejaVuSans-50"/>
      </g>
     </g>
    </g>
    <g id="ytick_4">
     <g id="line2d_33">
      <g>
       <use style="stroke:#000000;stroke-width:0.8;" x="158.300308" xlink:href="#m4a946245ca" y="181.954607"/>
      </g>
     </g>
    </g>
    <g id="ytick_5">
     <g id="line2d_34">
      <g>
       <use style="stroke:#000000;stroke-width:0.8;" x="158.300308" xlink:href="#m4a946245ca" y="140.443533"/>
      </g>
     </g>
     <g id="text_10">
      <!-- 2 -->
      <g transform="translate(144.937808 144.242752)scale(0.1 -0.1)">
       <use xlink:href="#DejaVuSans-50"/>
      </g>
     </g>
    </g>
    <g id="ytick_6">
     <g id="line2d_35">
      <g>
       <use style="stroke:#000000;stroke-width:0.8;" x="158.300308" xlink:href="#m4a946245ca" y="98.93246"/>
      </g>
     </g>
     <g id="text_11">
      <!-- 4 -->
      <g transform="translate(144.937808 102.731678)scale(0.1 -0.1)">
       <use xlink:href="#DejaVuSans-52"/>
      </g>
     </g>
    </g>
    <g id="ytick_7">
     <g id="line2d_36">
      <g>
       <use style="stroke:#000000;stroke-width:0.8;" x="158.300308" xlink:href="#m4a946245ca" y="57.421386"/>
      </g>
     </g>
     <g id="text_12">
      <!-- 6 -->
      <g transform="translate(144.937808 61.220605)scale(0.1 -0.1)">
       <use xlink:href="#DejaVuSans-54"/>
      </g>
     </g>
    </g>
    <g id="ytick_8">
     <g id="line2d_37">
      <defs>
       <path d="M 0 0 
L -2 0 
" id="meed93fe36e" style="stroke:#000000;stroke-width:0.6;"/>
      </defs>
      <g>
       <use style="stroke:#000000;stroke-width:0.6;" x="158.300308" xlink:href="#meed93fe36e" y="327.243364"/>
      </g>
     </g>
    </g>
    <g id="ytick_9">
     <g id="line2d_38">
      <g>
       <use style="stroke:#000000;stroke-width:0.6;" x="158.300308" xlink:href="#meed93fe36e" y="316.865596"/>
      </g>
     </g>
    </g>
    <g id="ytick_10">
     <g id="line2d_39">
      <g>
       <use style="stroke:#000000;stroke-width:0.6;" x="158.300308" xlink:href="#meed93fe36e" y="296.110059"/>
      </g>
     </g>
    </g>
    <g id="ytick_11">
     <g id="line2d_40">
      <g>
       <use style="stroke:#000000;stroke-width:0.6;" x="158.300308" xlink:href="#meed93fe36e" y="285.732291"/>
      </g>
     </g>
    </g>
    <g id="ytick_12">
     <g id="line2d_41">
      <g>
       <use style="stroke:#000000;stroke-width:0.6;" x="158.300308" xlink:href="#meed93fe36e" y="275.354522"/>
      </g>
     </g>
    </g>
    <g id="ytick_13">
     <g id="line2d_42">
      <g>
       <use style="stroke:#000000;stroke-width:0.6;" x="158.300308" xlink:href="#meed93fe36e" y="254.598985"/>
      </g>
     </g>
    </g>
    <g id="ytick_14">
     <g id="line2d_43">
      <g>
       <use style="stroke:#000000;stroke-width:0.6;" x="158.300308" xlink:href="#meed93fe36e" y="244.221217"/>
      </g>
     </g>
    </g>
    <g id="ytick_15">
     <g id="line2d_44">
      <g>
       <use style="stroke:#000000;stroke-width:0.6;" x="158.300308" xlink:href="#meed93fe36e" y="233.843449"/>
      </g>
     </g>
    </g>
    <g id="ytick_16">
     <g id="line2d_45">
      <g>
       <use style="stroke:#000000;stroke-width:0.6;" x="158.300308" xlink:href="#meed93fe36e" y="213.087912"/>
      </g>
     </g>
    </g>
    <g id="ytick_17">
     <g id="line2d_46">
      <g>
       <use style="stroke:#000000;stroke-width:0.6;" x="158.300308" xlink:href="#meed93fe36e" y="202.710143"/>
      </g>
     </g>
    </g>
    <g id="ytick_18">
     <g id="line2d_47">
      <g>
       <use style="stroke:#000000;stroke-width:0.6;" x="158.300308" xlink:href="#meed93fe36e" y="192.332375"/>
      </g>
     </g>
    </g>
    <g id="ytick_19">
     <g id="line2d_48">
      <g>
       <use style="stroke:#000000;stroke-width:0.6;" x="158.300308" xlink:href="#meed93fe36e" y="171.576838"/>
      </g>
     </g>
    </g>
    <g id="ytick_20">
     <g id="line2d_49">
      <g>
       <use style="stroke:#000000;stroke-width:0.6;" x="158.300308" xlink:href="#meed93fe36e" y="161.19907"/>
      </g>
     </g>
    </g>
    <g id="ytick_21">
     <g id="line2d_50">
      <g>
       <use style="stroke:#000000;stroke-width:0.6;" x="158.300308" xlink:href="#meed93fe36e" y="150.821302"/>
      </g>
     </g>
    </g>
    <g id="ytick_22">
     <g id="line2d_51">
      <g>
       <use style="stroke:#000000;stroke-width:0.6;" x="158.300308" xlink:href="#meed93fe36e" y="130.065765"/>
      </g>
     </g>
    </g>
    <g id="ytick_23">
     <g id="line2d_52">
      <g>
       <use style="stroke:#000000;stroke-width:0.6;" x="158.300308" xlink:href="#meed93fe36e" y="119.687996"/>
      </g>
     </g>
    </g>
    <g id="ytick_24">
     <g id="line2d_53">
      <g>
       <use style="stroke:#000000;stroke-width:0.6;" x="158.300308" xlink:href="#meed93fe36e" y="109.310228"/>
      </g>
     </g>
    </g>
    <g id="ytick_25">
     <g id="line2d_54">
      <g>
       <use style="stroke:#000000;stroke-width:0.6;" x="158.300308" xlink:href="#meed93fe36e" y="88.554691"/>
      </g>
     </g>
    </g>
    <g id="ytick_26">
     <g id="line2d_55">
      <g>
       <use style="stroke:#000000;stroke-width:0.6;" x="158.300308" xlink:href="#meed93fe36e" y="78.176923"/>
      </g>
     </g>
    </g>
    <g id="ytick_27">
     <g id="line2d_56">
      <g>
       <use style="stroke:#000000;stroke-width:0.6;" x="158.300308" xlink:href="#meed93fe36e" y="67.799154"/>
      </g>
     </g>
    </g>
    <g id="ytick_28">
     <g id="line2d_57">
      <g>
       <use style="stroke:#000000;stroke-width:0.6;" x="158.300308" xlink:href="#meed93fe36e" y="47.043618"/>
      </g>
     </g>
    </g>
    <g id="ytick_29">
     <g id="line2d_58">
      <g>
       <use style="stroke:#000000;stroke-width:0.6;" x="158.300308" xlink:href="#meed93fe36e" y="36.665849"/>
      </g>
     </g>
    </g>
   </g>
   <g id="line2d_59">
    <path clip-path="url(#pfbfb9362fb)" d="M 13.01155 190.718056 
L 30.586822 190.187079 
L 43.412038 189.605446 
L 54.017285 188.912861 
L 61.891644 188.199139 
L 69.055083 187.318447 
L 74.371727 186.45085 
L 78.710575 185.545947 
L 82.134378 184.658508 
L 85.200312 183.688498 
L 87.842443 182.676937 
L 90.022781 181.683055 
L 92.709742 180.197746 
L 94.841363 178.748856 
L 96.763365 177.167496 
L 98.838307 175.066941 
L 100.513567 172.968536 
L 101.932637 170.811387 
L 103.400642 168.088076 
L 104.792182 164.87974 
L 105.740951 162.221594 
L 106.806675 158.625138 
L 107.858012 154.226547 
L 108.732775 149.683323 
L 109.601256 144.070089 
L 110.394991 137.597558 
L 111.114721 130.15476 
L 111.906423 119.422442 
L 112.613022 106.395604 
L 113.260275 89.873232 
L 113.848688 68.529174 
L 114.378259 40.399802 
L 114.862545 1.126686 
L 114.883078 -1 
L 114.883078 -1 
" style="fill:none;stroke:#0000ff;stroke-linecap:square;stroke-width:3;"/>
   </g>
   <g id="line2d_60">
    <path clip-path="url(#pfbfb9362fb)" d="M 119.402677 341.254914 
L 119.984477 315.024541 
L 120.578369 296.569805 
L 121.288558 280.910567 
L 122.048602 268.850554 
L 122.910739 258.810959 
L 123.772877 251.264809 
L 124.644783 245.33148 
L 125.703821 239.702684 
L 126.541796 236.127675 
L 127.664058 232.21902 
L 128.975844 228.5847 
L 130.39508 225.467066 
L 131.577509 223.345992 
L 133.314173 220.811502 
L 134.757827 219.104624 
L 136.342988 217.548729 
L 137.835799 216.324467 
L 139.501648 215.178853 
L 141.42223 214.090455 
L 144.228903 212.851233 
L 146.399967 212.119683 
L 148.524377 211.559846 
L 151.095482 211.057555 
L 154.477005 210.648848 
L 156.396244 210.53176 
L 156.396244 210.53176 
" style="fill:none;stroke:#0000ff;stroke-linecap:square;stroke-width:3;"/>
   </g>
   <g id="line2d_61">
    <path clip-path="url(#pfbfb9362fb)" d="M 160.569718 210.547912 
L 163.884861 210.828222 
L 165.782452 211.103301 
L 169.603889 211.94794 
L 171.825443 212.650404 
L 174.268161 213.64739 
L 176.675714 214.919406 
L 179.14864 216.61972 
L 181.023205 218.263452 
L 182.6738 220.04877 
L 184.074882 221.887948 
L 185.266953 223.753665 
L 186.806942 226.701656 
L 187.989985 229.512994 
L 189.185207 233.012155 
L 190.37558 237.403038 
L 191.41618 242.283257 
L 192.336591 247.750482 
L 193.214801 254.406764 
L 194.002294 262.102793 
L 194.735009 271.422795 
L 195.449223 283.536531 
L 196.071848 297.886339 
L 196.63221 315.61995 
L 197.197521 341.254914 
L 197.197521 341.254914 
" style="fill:none;stroke:#0000ff;stroke-linecap:square;stroke-width:3;"/>
   </g>
   <g id="line2d_62">
    <path clip-path="url(#pfbfb9362fb)" d="M 201.717432 -1 
L 202.22207 40.381225 
L 202.78647 70.015745 
L 203.394811 91.494142 
L 204.055425 107.834829 
L 204.77372 120.655761 
L 205.548117 130.872277 
L 206.446379 139.725284 
L 207.357875 146.544882 
L 208.428265 152.700994 
L 209.35511 156.908102 
L 210.617711 161.468028 
L 211.889247 165.086599 
L 213.181504 168.049934 
L 214.48062 170.494716 
L 216.09012 172.972789 
L 217.8965 175.217796 
L 219.595196 176.945812 
L 221.098683 178.238654 
L 222.584326 179.34309 
L 225.403612 181.074032 
L 227.750141 182.237689 
L 231.468326 183.712188 
L 234.668948 184.716254 
L 237.300657 185.405542 
L 241.646935 186.34124 
L 246.513521 187.166881 
L 251.850444 187.879814 
L 259.562703 188.66399 
L 268.266327 189.314383 
L 279.822025 189.933281 
L 294.71179 190.478968 
L 303.589065 190.718056 
L 303.589065 190.718056 
" style="fill:none;stroke:#0000ff;stroke-linecap:square;stroke-width:3;"/>
   </g>
   <g id="line2d_63">
    <path clip-path="url(#pfbfb9362fb)" d="M 116.789234 341.254914 
L 116.789234 15.910312 
L 116.789234 15.910312 
" style="fill:none;stroke:#ff0000;stroke-dasharray:3.7,1.6;stroke-dashoffset:0;"/>
   </g>
   <g id="line2d_64">
    <path clip-path="url(#pfbfb9362fb)" d="M 199.811381 341.254914 
L 199.811381 15.910312 
L 199.811381 15.910312 
" style="fill:none;stroke:#ff0000;stroke-dasharray:3.7,1.6;stroke-dashoffset:0;"/>
   </g>
   <g id="line2d_65">
    <path clip-path="url(#pfbfb9362fb)" d="M 13.01155 202.710143 
L 303.589065 202.710143 
L 303.589065 202.710143 
" style="fill:none;stroke:#ff0000;stroke-dasharray:3.7,1.6;stroke-dashoffset:0;"/>
   </g>
   <g id="patch_3">
    <path d="M 158.300308 333.054914 
L 158.300308 30.854299 
" style="fill:none;stroke:#000000;stroke-linecap:square;stroke-linejoin:miter;stroke-width:0.8;"/>
   </g>
   <g id="patch_4">
    <path d="M 7.2 181.954607 
L 309.400615 181.954607 
" style="fill:none;stroke:#000000;stroke-linecap:square;stroke-linejoin:miter;stroke-width:0.8;"/>
   </g>
   <g id="text_13">
    <!-- Graph B -->
    <g transform="translate(121.659058 20.877187)scale(0.18 -0.18)">
     <defs>
      <path d="M 59.515625 10.40625 
L 59.515625 29.984375 
L 43.40625 29.984375 
L 43.40625 38.09375 
L 69.28125 38.09375 
L 69.28125 6.78125 
Q 63.578125 2.734375 56.6875 0.65625 
Q 49.8125 -1.421875 42 -1.421875 
Q 24.90625 -1.421875 15.25 8.5625 
Q 5.609375 18.5625 5.609375 36.375 
Q 5.609375 54.25 15.25 64.234375 
Q 24.90625 74.21875 42 74.21875 
Q 49.125 74.21875 55.546875 72.453125 
Q 61.96875 70.703125 67.390625 67.28125 
L 67.390625 56.78125 
Q 61.921875 61.421875 55.765625 63.765625 
Q 49.609375 66.109375 42.828125 66.109375 
Q 29.4375 66.109375 22.71875 58.640625 
Q 16.015625 51.171875 16.015625 36.375 
Q 16.015625 21.625 22.71875 14.15625 
Q 29.4375 6.6875 42.828125 6.6875 
Q 48.046875 6.6875 52.140625 7.59375 
Q 56.25 8.5 59.515625 10.40625 
z
" id="DejaVuSans-71"/>
      <path d="M 41.109375 46.296875 
Q 39.59375 47.171875 37.8125 47.578125 
Q 36.03125 48 33.890625 48 
Q 26.265625 48 22.1875 43.046875 
Q 18.109375 38.09375 18.109375 28.8125 
L 18.109375 0 
L 9.078125 0 
L 9.078125 54.6875 
L 18.109375 54.6875 
L 18.109375 46.1875 
Q 20.953125 51.171875 25.484375 53.578125 
Q 30.03125 56 36.53125 56 
Q 37.453125 56 38.578125 55.875 
Q 39.703125 55.765625 41.0625 55.515625 
z
" id="DejaVuSans-114"/>
      <path d="M 34.28125 27.484375 
Q 23.390625 27.484375 19.1875 25 
Q 14.984375 22.515625 14.984375 16.5 
Q 14.984375 11.71875 18.140625 8.90625 
Q 21.296875 6.109375 26.703125 6.109375 
Q 34.1875 6.109375 38.703125 11.40625 
Q 43.21875 16.703125 43.21875 25.484375 
L 43.21875 27.484375 
z
M 52.203125 31.203125 
L 52.203125 0 
L 43.21875 0 
L 43.21875 8.296875 
Q 40.140625 3.328125 35.546875 0.953125 
Q 30.953125 -1.421875 24.3125 -1.421875 
Q 15.921875 -1.421875 10.953125 3.296875 
Q 6 8.015625 6 15.921875 
Q 6 25.140625 12.171875 29.828125 
Q 18.359375 34.515625 30.609375 34.515625 
L 43.21875 34.515625 
L 43.21875 35.40625 
Q 43.21875 41.609375 39.140625 45 
Q 35.0625 48.390625 27.6875 48.390625 
Q 23 48.390625 18.546875 47.265625 
Q 14.109375 46.140625 10.015625 43.890625 
L 10.015625 52.203125 
Q 14.9375 54.109375 19.578125 55.046875 
Q 24.21875 56 28.609375 56 
Q 40.484375 56 46.34375 49.84375 
Q 52.203125 43.703125 52.203125 31.203125 
z
" id="DejaVuSans-97"/>
      <path d="M 18.109375 8.203125 
L 18.109375 -20.796875 
L 9.078125 -20.796875 
L 9.078125 54.6875 
L 18.109375 54.6875 
L 18.109375 46.390625 
Q 20.953125 51.265625 25.265625 53.625 
Q 29.59375 56 35.59375 56 
Q 45.5625 56 51.78125 48.09375 
Q 58.015625 40.1875 58.015625 27.296875 
Q 58.015625 14.40625 51.78125 6.484375 
Q 45.5625 -1.421875 35.59375 -1.421875 
Q 29.59375 -1.421875 25.265625 0.953125 
Q 20.953125 3.328125 18.109375 8.203125 
z
M 48.6875 27.296875 
Q 48.6875 37.203125 44.609375 42.84375 
Q 40.53125 48.484375 33.40625 48.484375 
Q 26.265625 48.484375 22.1875 42.84375 
Q 18.109375 37.203125 18.109375 27.296875 
Q 18.109375 17.390625 22.1875 11.75 
Q 26.265625 6.109375 33.40625 6.109375 
Q 40.53125 6.109375 44.609375 11.75 
Q 48.6875 17.390625 48.6875 27.296875 
z
" id="DejaVuSans-112"/>
      <path d="M 54.890625 33.015625 
L 54.890625 0 
L 45.90625 0 
L 45.90625 32.71875 
Q 45.90625 40.484375 42.875 44.328125 
Q 39.84375 48.1875 33.796875 48.1875 
Q 26.515625 48.1875 22.3125 43.546875 
Q 18.109375 38.921875 18.109375 30.90625 
L 18.109375 0 
L 9.078125 0 
L 9.078125 75.984375 
L 18.109375 75.984375 
L 18.109375 46.1875 
Q 21.34375 51.125 25.703125 53.5625 
Q 30.078125 56 35.796875 56 
Q 45.21875 56 50.046875 50.171875 
Q 54.890625 44.34375 54.890625 33.015625 
z
" id="DejaVuSans-104"/>
      <path id="DejaVuSans-32"/>
      <path d="M 19.671875 34.8125 
L 19.671875 8.109375 
L 35.5 8.109375 
Q 43.453125 8.109375 47.28125 11.40625 
Q 51.125 14.703125 51.125 21.484375 
Q 51.125 28.328125 47.28125 31.5625 
Q 43.453125 34.8125 35.5 34.8125 
z
M 19.671875 64.796875 
L 19.671875 42.828125 
L 34.28125 42.828125 
Q 41.5 42.828125 45.03125 45.53125 
Q 48.578125 48.25 48.578125 53.8125 
Q 48.578125 59.328125 45.03125 62.0625 
Q 41.5 64.796875 34.28125 64.796875 
z
M 9.8125 72.90625 
L 35.015625 72.90625 
Q 46.296875 72.90625 52.390625 68.21875 
Q 58.5 63.53125 58.5 54.890625 
Q 58.5 48.1875 55.375 44.234375 
Q 52.25 40.28125 46.1875 39.3125 
Q 53.46875 37.75 57.5 32.78125 
Q 61.53125 27.828125 61.53125 20.40625 
Q 61.53125 10.640625 54.890625 5.3125 
Q 48.25 0 35.984375 0 
L 9.8125 0 
z
" id="DejaVuSans-66"/>
     </defs>
     <use xlink:href="#DejaVuSans-71"/>
     <use x="77.490234" xlink:href="#DejaVuSans-114"/>
     <use x="118.603516" xlink:href="#DejaVuSans-97"/>
     <use x="179.882812" xlink:href="#DejaVuSans-112"/>
     <use x="243.359375" xlink:href="#DejaVuSans-104"/>
     <use x="306.738281" xlink:href="#DejaVuSans-32"/>
     <use x="338.525391" xlink:href="#DejaVuSans-66"/>
    </g>
   </g>
  </g>
 </g>
 <defs>
  <clipPath id="pfbfb9362fb">
   <rect height="302.200615" width="302.200615" x="7.2" y="30.854299"/>
  </clipPath>
 </defs>
</svg>
